<?xml version="1.0" encoding="UTF-8"?>
<svg width="282px" height="37px" viewBox="0 0 282 37" version="1.1" xmlns="http://www.w3.org/2000/svg" xmlns:xlink="http://www.w3.org/1999/xlink">
    <!-- Generator: Sketch 43.1 (39012) - http://www.bohemiancoding.com/sketch -->
    <title>Logo Wide</title>
    <desc>Created with Sketch.</desc>
    <defs></defs>
    <g id="Symbols" stroke="none" stroke-width="1" fill="none" fill-rule="evenodd">
        <g id="Navigation/Desktop" transform="translate(-90.000000, -21.000000)" fill="#009B48">
            <g id="Logo-Wide">
                <g transform="translate(90.000000, 21.000000)">
                    <path d="M5.2272,0.2308 L0.0002,15.4368 L1.8462,15.4368 L3.0692,11.8958 L9.7842,11.8958 L11.0072,15.4368 L12.8532,15.4368 L7.6152,0.2308 L5.2272,0.2308 Z M6.4272,2.1458 L9.2192,10.2338 L3.6342,10.2338 L6.4272,2.1458 Z" id="Fill-1"></path>
                    <path d="M25.0027,15.4606 L24.3217,15.4606 L23.2597,14.6416 C22.2797,15.3226 21.2757,15.6686 19.9027,15.6686 C17.7917,15.6686 16.0607,14.8146 14.8377,13.4066 C13.6147,11.9996 12.9107,10.0146 12.9107,7.7416 C12.9107,5.6186 13.5107,3.6806 14.7567,2.2726 C16.0027,0.8656 17.8957,0.0006 20.4447,0.0006 C21.0107,0.0006 21.6567,0.0456 22.2677,0.1276 C22.8797,0.2076 23.4907,0.3226 24.0097,0.4736 L24.0097,2.1116 L23.9177,2.1576 C23.3757,1.9846 22.7877,1.8696 22.1987,1.7886 C21.5987,1.7076 21.0447,1.6726 20.5837,1.6726 C18.5987,1.6726 17.1337,2.3426 16.1647,3.4156 C15.1837,4.4886 14.6987,5.9886 14.6987,7.6386 C14.6987,9.4266 15.2527,11.0066 16.2227,12.1496 C17.1797,13.3036 18.5297,14.0066 20.0987,14.0066 C20.9867,14.0066 21.7137,13.7756 22.2327,13.4996 C22.7527,13.2226 23.0867,12.8876 23.2597,12.6916 L23.2597,8.8726 L19.9717,8.8726 L19.9717,7.0846 L25.0027,7.0846 L25.0027,15.4606 Z" id="Fill-2"></path>
                    <polygon id="Fill-4" points="28.4641 0.2306 37.6251 0.2306 37.6251 1.8926 30.2521 1.8926 30.2521 7.0036 37.6251 7.0036 37.6251 8.6656 30.2521 8.6656 30.2521 13.7756 37.6251 13.7756 37.6251 15.4376 28.4641 15.4376"></polygon>
                    <polygon id="Fill-6" points="41.8362 3.5768 41.8362 15.4378 40.0482 15.4378 40.0482 0.2308 41.9052 0.2308 49.2552 11.9878 49.2552 0.2308 51.0432 0.2308 51.0432 15.4378 49.2552 15.4378"></polygon>
                    <polygon id="Fill-8" points="53.2932 0.2306 64.4842 0.2306 64.4842 1.8926 59.7772 1.8926 59.7772 15.4376 58.0002 15.4376 58.0002 1.8926 53.2932 1.8926"></polygon>
                    <path d="M64.1965,13.3839 L64.2305,13.3719 C65.0385,13.7419 66.5265,14.0069 67.5775,14.0069 C69.3305,14.0069 71.0615,13.3719 71.0615,11.5029 C71.0615,10.4879 70.5885,9.8879 69.7225,9.3459 C68.9965,8.8839 66.0995,7.5229 65.4765,7.0039 C64.7385,6.4149 64.2775,5.4689 64.2775,4.0959 C64.2775,1.2349 66.3195,-0.0001 68.9845,-0.0001 C69.9195,-0.0001 70.8305,0.1619 71.6615,0.4039 L71.6615,1.9269 L71.6275,1.9499 C70.9345,1.8119 69.9535,1.6379 68.9845,1.6379 C67.3005,1.6379 65.9035,2.1809 65.9035,3.9579 C65.9035,4.7079 66.1465,5.1229 66.5615,5.4919 C67.3115,6.1609 69.6765,7.1189 70.8195,7.9379 C72.0655,8.8259 72.7225,9.4149 72.7225,11.1109 C72.7225,14.1339 70.1965,15.6689 67.3005,15.6689 C66.1925,15.6689 65.1195,15.4489 64.1965,14.9989 L64.1965,13.3839 Z" id="Fill-10"></path>
                    <path d="M85.7717,13.5567 L85.7717,15.1957 C85.2527,15.3457 84.6417,15.4607 84.0417,15.5417 C83.4297,15.6337 82.8067,15.6687 82.2647,15.6687 C79.7267,15.6687 77.8227,14.8377 76.5767,13.4067 C75.3187,11.9757 74.6847,9.9567 74.6847,7.5917 C74.7307,5.4577 75.3537,3.5417 76.5997,2.1807 C77.8457,0.8197 79.7267,-0.0003 82.2647,-0.0003 C82.8067,-0.0003 83.4297,0.0457 84.0417,0.1267 C84.6417,0.2077 85.2527,0.3227 85.7717,0.4737 L85.7717,2.1117 L85.6917,2.1577 C85.1487,1.9847 84.5487,1.8687 83.9607,1.7877 C83.3727,1.7077 82.8187,1.6727 82.3567,1.6727 C80.3837,1.6727 78.9077,2.3077 77.9377,3.3807 C76.9577,4.4537 76.4607,6.0117 76.4607,7.8227 C76.4607,9.6227 76.9457,11.1577 77.9257,12.2527 C78.9077,13.3487 80.3727,13.9947 82.3567,13.9947 C82.8187,13.9947 83.3727,13.9607 83.9607,13.8797 C84.5487,13.7997 85.1487,13.6837 85.6917,13.5107 L85.7717,13.5567 Z" id="Fill-13"></path>
                    <polygon id="Fill-16" points="97.2874 8.7228 89.8684 8.7228 89.8684 15.4378 88.0794 15.4378 88.0794 0.2308 89.8684 0.2308 89.8684 6.9458 97.2874 6.9458 97.2874 0.2308 99.0754 0.2308 99.0754 15.4378 97.2874 15.4378"></polygon>
                    <path d="M104.844,10.234 L110.429,10.234 L107.636,2.146 L104.844,10.234 Z M110.993,11.896 L104.279,11.896 L103.056,15.438 L101.21,15.438 L106.437,0.231 L108.824,0.231 L114.063,15.438 L112.217,15.438 L110.993,11.896 Z" id="Fill-18"></path>
                    <path d="M117.9856,1.9151 L117.9856,8.8611 L119.4166,8.8611 C121.0786,8.8611 122.4516,8.6651 123.4206,8.1341 C124.3786,7.6031 124.9086,6.7721 124.9086,5.4461 C124.9086,4.0611 124.2976,3.1851 123.3166,2.6421 C122.3356,2.1001 120.9516,1.9151 119.4166,1.9151 L117.9856,1.9151 Z M116.1976,15.4371 L116.1976,0.2301 L119.1856,0.2301 C121.6666,0.2301 123.5476,0.6001 124.8046,1.3841 C126.0506,2.1811 126.6966,3.4151 126.6966,5.1691 C126.6966,6.5421 126.3156,7.5921 125.6346,8.3761 C124.9546,9.1721 124.0196,9.7271 122.8886,10.0611 C121.7586,10.3951 120.4556,10.5451 119.0826,10.5451 L117.9856,10.5451 L117.9856,15.4371 L116.1976,15.4371 Z" id="Fill-20"></path>
                    <polygon id="Fill-22" points="1.211 36.7045 3.911 36.7045 3.911 21.4975 1.211 21.4975"></polygon>
                    <polygon id="Fill-24" points="9.6111 26.5973 9.6111 36.7043 6.9111 36.7043 6.9111 21.4973 9.6111 21.4973 15.9341 31.6173 15.9341 21.4973 18.6331 21.4973 18.6331 36.7043 15.9341 36.7043"></polygon>
                    <polygon id="Fill-25" points="24.3333 26.5973 24.3333 36.7043 21.6333 36.7043 21.6333 21.4973 24.3333 21.4973 30.6553 31.6173 30.6553 21.4973 33.3553 21.4973 33.3553 36.7043 30.6553 36.7043"></polygon>
                    <path d="M38.2483,28.9742 C38.2483,30.4972 38.6513,31.8472 39.4363,32.8052 C40.2093,33.7622 41.3633,34.3392 42.8863,34.3392 C44.3623,34.3392 45.4813,33.8092 46.2313,32.8852 C46.9813,31.9742 47.3743,30.6942 47.3743,29.2042 C47.3743,27.4622 46.7853,26.1132 45.9203,25.2132 C45.0433,24.3132 43.8783,23.8512 42.7253,23.8512 C41.6053,23.8512 40.4753,24.2892 39.6443,25.1562 C38.8023,26.0212 38.2483,27.3012 38.2483,28.9742 M35.5483,29.0892 C35.5483,26.8742 36.2983,24.9242 37.5903,23.5162 C38.8823,22.1092 40.7173,21.2662 42.8863,21.2662 C45.0553,21.2662 46.8543,22.1092 48.1123,23.5162 C49.3583,24.9242 50.0743,26.8742 50.0743,29.0892 C50.0743,31.3052 49.3363,33.2542 48.0433,34.6622 C46.7513,36.0702 44.9283,36.9352 42.7593,36.9352 C40.5903,36.9352 38.7783,36.0702 37.5323,34.6622 C36.2743,33.2542 35.5483,31.3052 35.5483,29.0892" id="Fill-26"></path>
                    <polygon id="Fill-27" points="64.22 21.4977 58.901 36.9357 55.74 36.9357 50.42 21.4977 53.282 21.4977 57.32 33.2207 61.358 21.4977"></polygon>
                    <polygon id="Fill-28" points="66.0657 21.4977 75.0997 21.4977 75.0997 24.0947 68.7657 24.0947 68.7657 27.8437 74.9267 27.8437 74.9267 30.4397 68.7657 30.4397 68.7657 34.1087 75.0997 34.1087 75.0997 36.7047 66.0657 36.7047"></polygon>
                    <path d="M80.2229,24.0943 L80.2229,29.5633 L81.9299,29.5633 C83.4989,29.5633 84.5149,29.2973 85.1379,28.8353 C85.7609,28.3743 85.9799,27.7163 85.9799,26.8983 C85.9799,26.0673 85.7609,25.3743 85.1379,24.8783 C84.5149,24.3823 83.4989,24.0943 81.9299,24.0943 L80.2229,24.0943 Z M77.5229,36.7043 L77.5229,21.4973 L81.8839,21.4973 C82.8879,21.4973 83.9719,21.6243 84.9879,21.9473 C86.0029,22.2703 86.9139,22.8013 87.5949,23.6203 C88.2759,24.4403 88.6919,25.5133 88.6919,26.9783 C88.6919,28.0393 88.4259,28.9053 87.9639,29.6093 C87.5029,30.3133 86.8569,30.8663 86.0829,31.2703 C86.3949,31.9623 87.0069,32.7703 87.7099,33.4623 C88.4139,34.1663 89.2219,34.7663 89.9139,35.0083 L89.9139,35.1353 L88.7139,36.9353 C87.9639,36.9353 87.1919,36.6013 86.4759,36.0813 C85.7609,35.5733 85.1029,34.8813 84.5729,34.1553 C84.0409,33.4283 83.6379,32.6783 83.4179,32.0673 C82.9219,32.1473 82.4039,32.1583 81.8839,32.1583 L80.2229,32.1583 L80.2229,36.7043 L77.5229,36.7043 Z" id="Fill-29"></path>
                    <polygon id="Fill-30" points="91.6448 21.4977 100.6788 21.4977 100.6788 24.0947 94.3448 24.0947 94.3448 27.8437 100.5058 27.8437 100.5058 30.4397 94.3448 30.4397 94.3448 34.1087 100.6788 34.1087 100.6788 36.7047 91.6448 36.7047"></polygon>
                    <polygon id="Fill-31" points="105.802 26.5973 105.802 36.7043 103.102 36.7043 103.102 21.4973 105.802 21.4973 112.124 31.6173 112.124 21.4973 114.824 21.4973 114.824 36.7043 112.124 36.7043"></polygon>
                    <path d="M127.0198,24.9596 C127.0198,25.5936 127.3088,26.1936 127.9428,26.9436 C128.2658,26.8166 128.7498,26.6206 129.1308,26.2976 C129.5118,25.9856 129.8238,25.5596 129.8238,24.9596 C129.8238,24.4516 129.6048,24.1286 129.3038,23.9436 C129.0038,23.7586 128.6238,23.6886 128.3008,23.6886 C127.7358,23.6886 127.4128,23.8976 127.2398,24.1626 C127.0548,24.4286 127.0198,24.7396 127.0198,24.9596 L127.0198,24.9596 Z M127.5038,30.1626 C127.1238,30.3936 126.7438,30.6936 126.4658,31.0636 C126.1888,31.4436 126.0158,31.9046 126.0158,32.4706 C126.0158,33.6826 126.8238,34.4896 128.2658,34.4896 C129.3278,34.4896 130.1238,34.0626 130.7238,33.3706 L127.5038,30.1626 Z M136.1688,35.1586 L134.3238,36.9356 L132.5698,35.1926 C131.4508,36.3016 130.0078,36.9356 128.2538,36.9356 C126.8708,36.9356 125.6588,36.5206 124.7928,35.7586 C123.9278,34.9966 123.4198,33.8896 123.4198,32.4936 C123.4198,30.8206 124.1348,29.3316 125.7398,28.2246 C125.4618,27.9006 125.1628,27.4396 124.9318,26.8866 C124.6898,26.3326 124.5158,25.6746 124.5158,24.9476 C124.5158,23.9326 124.8508,23.0086 125.4978,22.3396 C126.1308,21.6706 127.0658,21.2666 128.2658,21.2666 C129.1768,21.2666 130.1808,21.5086 130.9658,22.0636 C131.7498,22.6166 132.3038,23.4816 132.3038,24.7636 C132.3038,25.7776 131.9578,26.5976 131.4508,27.2436 C130.9428,27.9006 130.2738,28.3866 129.6268,28.7206 L132.2008,31.3056 C132.6728,30.1866 132.9618,28.9856 133.1348,27.9366 L133.2268,27.9366 L135.3968,28.9046 C135.1198,30.5666 134.6808,31.9286 134.0928,33.0816 L136.1688,35.1586 Z" id="Fill-32"></path>
                    <path d="M146.3108,28.9742 C146.3108,30.4972 146.7148,31.8472 147.4988,32.8052 C148.2728,33.7622 149.4258,34.3392 150.9498,34.3392 C152.4258,34.3392 153.5448,33.8092 154.2948,32.8852 C155.0448,31.9742 155.4378,30.6942 155.4378,29.2042 C155.4378,27.4622 154.8488,26.1132 153.9838,25.2132 C153.1068,24.3132 151.9418,23.8512 150.7878,23.8512 C149.6678,23.8512 148.5388,24.2892 147.7068,25.1562 C146.8648,26.0212 146.3108,27.3012 146.3108,28.9742 M143.6118,29.0892 C143.6118,26.8742 144.3618,24.9242 145.6538,23.5162 C146.9458,22.1092 148.7808,21.2662 150.9498,21.2662 C153.1188,21.2662 154.9178,22.1092 156.1758,23.5162 C157.4218,24.9242 158.1368,26.8742 158.1368,29.0892 C158.1368,31.3052 157.3988,33.2542 156.1068,34.6622 C154.8148,36.0702 152.9918,36.9352 150.8228,36.9352 C148.6538,36.9352 146.8418,36.0702 145.5958,34.6622 C144.3378,33.2542 143.6118,31.3052 143.6118,29.0892" id="Fill-33"></path>
                    <polygon id="Fill-34" points="163.0296 26.5973 163.0296 36.7043 160.3296 36.7043 160.3296 21.4973 163.0296 21.4973 169.3516 31.6173 169.3516 21.4973 172.0516 21.4973 172.0516 36.7043 169.3516 36.7043"></polygon>
                    <path d="M177.7522,24.0943 L177.7522,34.1203 L179.7712,34.1203 C181.9052,34.1203 183.3012,33.4053 184.1782,32.4243 C185.0432,31.4443 185.3662,30.1863 185.3662,29.0893 C185.3662,27.8323 184.8822,26.5743 183.9132,25.6403 C182.9432,24.7173 181.4892,24.0943 179.5632,24.0943 L177.7522,24.0943 Z M175.0522,36.7043 L175.0522,21.4973 L180.0942,21.4973 C182.5742,21.4973 184.5942,22.3513 186.0012,23.7243 C187.4082,25.0973 188.1822,27.0013 188.1822,29.0783 C188.1822,30.9703 187.5472,32.8743 186.2312,34.3053 C184.9162,35.7363 182.9322,36.7043 180.2212,36.7043 L175.0522,36.7043 Z" id="Fill-35"></path>
                    <polygon id="Fill-36" points="190.3743 21.4977 199.4083 21.4977 199.4083 24.0947 193.0733 24.0947 193.0733 27.8437 199.2353 27.8437 199.2353 30.4397 193.0733 30.4397 193.0733 34.1087 199.4083 34.1087 199.4083 36.7047 190.3743 36.7047"></polygon>
                    <path d="M204.5315,24.0943 L204.5315,29.5633 L206.2385,29.5633 C207.8075,29.5633 208.8235,29.2973 209.4465,28.8353 C210.0695,28.3743 210.2885,27.7163 210.2885,26.8983 C210.2885,26.0673 210.0695,25.3743 209.4465,24.8783 C208.8235,24.3823 207.8075,24.0943 206.2385,24.0943 L204.5315,24.0943 Z M201.8315,36.7043 L201.8315,21.4973 L206.1925,21.4973 C207.1965,21.4973 208.2805,21.6243 209.2965,21.9473 C210.3115,22.2703 211.2225,22.8013 211.9035,23.6203 C212.5835,24.4403 212.9985,25.5133 212.9985,26.9783 C212.9985,28.0393 212.7335,28.9053 212.2715,29.6093 C211.8115,30.3133 211.1655,30.8663 210.3915,31.2703 C210.7035,31.9623 211.3155,32.7703 212.0185,33.4623 C212.7215,34.1663 213.5295,34.7663 214.2215,35.0083 L214.2215,35.1353 L213.0215,36.9353 C212.2715,36.9353 211.5005,36.6013 210.7845,36.0813 C210.0695,35.5733 209.4115,34.8813 208.8815,34.1553 C208.3495,33.4283 207.9465,32.6783 207.7265,32.0673 C207.2305,32.1473 206.7125,32.1583 206.1925,32.1583 L204.5315,32.1583 L204.5315,36.7043 L201.8315,36.7043 Z" id="Fill-37"></path>
                    <polygon id="Fill-38" points="218.6526 26.5973 218.6526 36.7043 215.9526 36.7043 215.9526 21.4973 218.6526 21.4973 224.9746 31.6173 224.9746 21.4973 227.6746 21.4973 227.6746 36.7043 224.9746 36.7043"></polygon>
                    <polygon id="Fill-39" points="230.6751 21.4977 239.7081 21.4977 239.7081 24.0947 233.3741 24.0947 233.3741 27.8437 239.5351 27.8437 239.5351 30.4397 233.3741 30.4397 233.3741 34.1087 239.7081 34.1087 239.7081 36.7047 230.6751 36.7047"></polygon>
                    <polygon id="Fill-40" points="255.0081 36.7047 252.3081 36.7047 252.3081 27.2777 249.8511 31.8927 247.2891 31.8927 244.8311 27.2777 244.8311 36.7047 242.1321 36.7047 242.1321 21.4977 244.8311 21.4977 248.5701 28.5477 252.3081 21.4977 255.0081 21.4977"></polygon>
                    <polygon id="Fill-41" points="258.0081 21.4977 267.0421 21.4977 267.0421 24.0947 260.7071 24.0947 260.7071 27.8437 266.8681 27.8437 266.8681 30.4397 260.7071 30.4397 260.7071 34.1087 267.0421 34.1087 267.0421 36.7047 258.0081 36.7047"></polygon>
                    <polygon id="Fill-42" points="272.1643 26.5973 272.1643 36.7043 269.4653 36.7043 269.4653 21.4973 272.1643 21.4973 278.4873 31.6173 278.4873 21.4973 281.1863 21.4973 281.1863 36.7043 278.4873 36.7043"></polygon>
                </g>
            </g>
        </g>
    </g>
</svg>